/* XPM */
static char *_74b4ac2de98471cbbf82f296166e6b2c0mgJCFuvCx5WkC1[] = {
/* columns rows colors chars-per-pixel */
"48 48 6 1 ",
"  c black",
". c #6F3F00",
"X c #2F7515",
"o c #74C857",
"O c #699EFC",
"+ c #BED6FD",
/* pixels */
"oooooooooooooooooooooooooooooooooooooooooooooooo",
"oooooooooooooooooooooooooooooooooooooooooooooooo",
"oooooooooooooooooooooooooooooooooooooooooooooooo",
"oooooooooooooooooooooooooooooooooooooooooooooooo",
"oooooooooooooooooooooooooooooooooooooooooooooooo",
"oooooooooooooooooooooooooooooooooooooooooooooooo",
"oooooooooooooooooooooooooooooooooooooooooooooooo",
"oooooooooooooooooooooooooooooooooooooXoooXoooooo",
"ooooooXoooXoooooooooooooooooooooooooooXoXooooooo",
"oooooooXoXoooooooooooooooooooooooooooooXoooooooo",
"ooooooooXooooooooooooooooooooooooooooooXoooooooo",
"ooooooooXooooooooooooooooooooooooooooooooooooooo",
"oooooooooooooooooooooooooooooooooooooooooooooooo",
"oooooooooooooooooooooooooooooooooooooooooooooooo",
"oooooooooooooooooooooooooooooooooooooooooooooooo",
"oooooooooooooooooooooooooooooooooooooooooooooooo",
"oooooooooooooooooooooooooooooooooooooooooooooooo",
"oooooooooooooooooooooooo ooooooooooooooooooooooo",
"ooooooooooooooooooooooo . o oooooooooooooooooooo",
"ooooooooooooooooooooo oo o . ooooooooooooooooooo",
"oooooooooooooooooooo . oooo oooooooooooooooooooo",
"ooooooooooooooooooooo oooooooooooooooooooooooooo",
"ooooooooooooooooooooooo   oooooooooooooooXoooXoo",
"oooooooooooooooooooo o OOO oooooooooooooooXoXooo",
"ooooooooooooXoooXoo O O...O oooooooooooooooXoooo",
"oooooooooooooXoXoo O O+OOO+ oooooooooooooooXoooo",
"ooooooooooooooXooo O  +++++ oooooooooooooooooooo",
"ooooooooooooooXoooo O +++++ oooooooooooooooooooo",
"oooooooooooooooooooo o OOO ooooooooooooooooooooo",
"ooooooooooooooooooooooo   oooooooooooooooooooooo",
"oooooooooooooooooooooooooooooooooooooooooooooooo",
"oooooooooooooooooooooooooooooooooooooooooooooooo",
"oooooooooooooooooooooooooooooXoooXoooooooooooooo",
"ooooooooooooooooooooooooooooooXoXooooooooooooooo",
"oooooooooooooooooooooooooooooooXoooooooooooooooo",
"oooooooooooooooooooooooooooooooXoooooooooooooooo",
"oooooooooooooooooooooooooooooooooooooooooooooooo",
"oooooooooooooooooooooooooooooooooooooooooooooooo",
"oooooooooooooooooooooooooooooooooooooooooooooooo",
"oooooooooooooooooooooooooooooooooooooooooooooooo",
"oooooooooooooooooooooooooooooooooooooooooooooooo",
"oooXoooXoooooooooooooooooooooooooooooooooooooooo",
"ooooXoXooooooooooooooooooooooooooooooooooooooooo",
"oooooXoooooooooooooooooooooooooooooooooooooooooo",
"oooooXoooooooooooooooooooooooooooooooooooooooooo",
"oooooooooooooooooooooooooooooooooooooooooooooooo",
"oooooooooooooooooooooooooooooooooooooooooooooooo",
"oooooooooooooooooooooooooooooooooooooooooooooooo"
};
