/* XPM */
static char *_2bd0856c2864401a3c6375759b35d552LJn913UKI1nIVpO[] = {
/* columns rows colors chars-per-pixel */
"48 48 14 1 ",
"  c #0E0026",
". c #010D29",
"X c #6E0B32",
"o c #2F7515",
"O c #011A51",
"+ c #2C024F",
"@ c #49024D",
"# c #74C857",
"$ c #1E4A9D",
"% c #006BB6",
"& c #6555FF",
"* c #699EFC",
"= c #B4D1FF",
"- c #BED6FD",
/* pixels */
"################################################",
"################################################",
"################################################",
"################################################",
"################################################",
"################################################",
"################################################",
"#####################################o###o######",
"######o###o###########################o#o#######",
"#######o#o#############################o########",
"########o##############################o########",
"########o#######################################",
"################################################",
"##########XXXXXXXXXX############################",
"#########XX@@@@@@@@XX###########################",
"########XXX@++++++@XXX##########################",
"#######XXX@+......+@XXX#########################",
"######XXX@+.OOOOOO.+@XXX########################",
"#####XXX@+.O------O.+@XXX#######################",
"#####XX@+.O-$$$$$$-O.+@XX#######################",
"####XX@+.O-$$****$$-O.+@XX######################",
"####X@@+.O-$*----*$-O.+@@X######################",
"####X@+.O-$*--$$--*$-O.+@X###############o###o##",
"####X@+.O-$*-$**$-*$-O.+@X################o#o###",
"####X@+.O-$*-$**$-*$-O.+@X#################o####",
"####X@+.O-$*-$**$-*$-O.+@X#################o####",
"####X@+.O-$*-$**$-*$-O.+@X####         #########",
"####X@+.O-$*--$$--*$-O.+@X### ===&&&=== ########",
"####X@@+.O-$*----*$-O.+@@X### % %&&&% % ########",
"####XX@+.O-$$****$$-O.+@XX### &&& % &&& ########",
"#####XX@+.O-$$$$$$-O.+@XXX### &=======& ########",
"#####XXX@+.O------O.+@XXX####  =     =  ########",
"######XXX@+.OOOOOO.+@XXX#### && ===== && #######",
"#######XXX@+......+@XXX##### &% ===== %& #######",
"########XXX@++++++@XXX#######  &=====&  ########",
"#########XX@@@@@@@@XX######### &=====& #########",
"##########XXXXXXXXXX######### &&&===&&& ########",
"############################## &&&&&&& #########",
"############################### &% %& ##########",
"################################  #  ###########",
"################################################",
"###o###o########################################",
"####o#o#########################################",
"#####o##########################################",
"#####o##########################################",
"################################################",
"################################################",
"################################################"
};
