/* XPM */
static char *_54eb4842c1f416dec1521e31cb3c6c58yGeeKP3Cm5ZdF1Q[] = {
/* columns rows colors chars-per-pixel */
"48 48 10 1 ",
"  c #412F2F",
". c #2F7515",
"X c #915841",
"o c #A0654D",
"O c #B56E4B",
"+ c #74C857",
"@ c #E09669",
"# c #F6C192",
"$ c #CFCCC5",
"% c #F1E6D6",
/* pixels */
"++++++++++++++++++++++++++++++++++++++++++++++++",
"++++++++++++++++++++++++++++++++++++++++++++++++",
"++++++++++++++++++++++++++++++++++++++++++++++++",
"++++++++++++++++++++++++++++++++++++++++++++++++",
"++++++++++++++++++++++++++++++++++++++++++++++++",
"++++++++++++++++++++++++++++++++++++++++++++++++",
"++++++++++++++++++++++++++++++++++++++++++++++++",
"+++++++++++++++++++++++++++++++++++++.+++.++++++",
"++++++.+++.+++++++++++++++++++++++++++.+.+++++++",
"+++++++.+.+++++++++++++++++++++++++++++.++++++++",
"++++++++.++++++++++++++++++++++++++++++.++++++++",
"++++++++.+++++++++++++++++++++++++++++++++++++++",
"++++++++++++++++++++++++++++++++++++++++++++++++",
"++++++++++++++++++++++++++++++++++++++++++++++++",
"++++++++++++++++++++++++++++++++++++++++++++++++",
"++++++++++++++++++++++++++++++++++++++++++++++++",
"+++++++++++++++++++++XXXXX++++++++++++++++++++++",
"++++++++++++++++++++XO@OOOX+++++++++++++++++++++",
"+++++++++++++++++++XO@OOOOOX++++++++++++++++++++",
"++++++++++++++++++XoO@OOO@OoX+++++++++++++++++++",
"++++++++++++++++++XoOO@@@OooX+++++++++++++++++++",
"++++++++++++++++++XooOOOOXXXX+++++++++++++++++++",
"++++++++++++++++++XoooooX%X@+++++++++++++.+++.++",
"++++++++++++++++++XoooooX# @++++++++++++++.+.+++",
"++++++++++++.+++.++XoooX###@+++++++++++++++.++++",
"+++++++++++++.+.++++XXXO@@@++++++++++++++++.++++",
"++++++++++++++.++++++O$$OO++++++++++++++++++++++",
"++++++++++++++.+++++O$$$$$O+++++++++++++++++++++",
"++++++++++++++++++++O$$O$@O+++++++++++++++++++++",
"++++++++++++++++++++O$$O@#O+++++++++++++++++++++",
"+++++++++++++++++++++O@@OO++++++++++++++++++++++",
"++++++++++++++++++++++OOO+++++++++++++++++++++++",
"+++++++++++++++++++++++++++++.+++.++++++++++++++",
"++++++++++++++++++++++++++++++.+.+++++++++++++++",
"+++++++++++++++++++++++++++++++.++++++++++++++++",
"+++++++++++++++++++++++++++++++.++++++++++++++++",
"++++++++++++++++++++++++++++++++++++++++++++++++",
"++++++++++++++++++++++++++++++++++++++++++++++++",
"++++++++++++++++++++++++++++++++++++++++++++++++",
"++++++++++++++++++++++++++++++++++++++++++++++++",
"++++++++++++++++++++++++++++++++++++++++++++++++",
"+++.+++.++++++++++++++++++++++++++++++++++++++++",
"++++.+.+++++++++++++++++++++++++++++++++++++++++",
"+++++.++++++++++++++++++++++++++++++++++++++++++",
"+++++.++++++++++++++++++++++++++++++++++++++++++",
"++++++++++++++++++++++++++++++++++++++++++++++++",
"++++++++++++++++++++++++++++++++++++++++++++++++",
"++++++++++++++++++++++++++++++++++++++++++++++++"
};
