/* XPM */
static char *_81e8bbe547a4dc9a29ffbf1254c86c2YbkXscQynFYBp09L[] = {
/* columns rows colors chars-per-pixel */
"48 48 10 1 ",
"  c #412F2F",
". c #2F7515",
"X c #915841",
"o c #A0654D",
"O c #B56E4B",
"+ c #74C857",
"@ c #E09669",
"# c #F6C192",
"$ c #CFCCC5",
"% c #F1E6D6",
/* pixels */
"++++++++++++++++++++++++++++++++++++++++++++++++",
"++++++++++++++++++++++++++++++++++++++++++++++++",
"++++++++++++++++++++++++++++++++++++++++++++++++",
"++++++++++++++++++++++++++++++++++++++++++++++++",
"++++++++++++++++++++++++++++++++++++++++++++++++",
"++++++++++++++++++++++++++++++++++++++++++++++++",
"++++++++++++++++++++++++++++++++++++++++++++++++",
"+++++++++++++++++++++++++++++++++++++.+++.++++++",
"++++++.+++.+++++++++++++++++++++++++++.+.+++++++",
"+++++++.+.+++++++++++++++++++++++++++++.++++++++",
"++++++++.++++++++++++++++++++++++++++++.++++++++",
"++++++++.+++++++++++++++++++++++++++++++++++++++",
"++++++++++++++++++++++++++++++++++++++++++++++++",
"++++++++++++++++++++++++++++++++++++++++++++++++",
"++++++++++++++++++++++++++++++++++++++++++++++++",
"++++++++++++++++++++++++++++++++++++++++++++++++",
"+++++++++++++++++++++XXXXXX+++++++++++++++++++++",
"++++++++++++++++++++Xo@OO@oX++++++++++++++++++++",
"+++++++++++++++++++Xo@OOOO@oX+++++++++++++++++++",
"+++++++++++++++++++Xo@OOOO@OX+++++++++++++++++++",
"++++++++++++++++++Xooo@OO@OOoX++++++++++++++++++",
"++++++++++++++++++XoooXXOOOooX++++++++++++++++++",
"++++++++++++++++++XooX@@XXoooX+++++++++++.+++.++",
"+++++++++++++++++++XX@##@@XXX+++++++++++++.+.+++",
"++++++++++++.+++.++X@%X##X%@X++++++++++++++.++++",
"+++++++++++++.+.++++X# ## #X+++++++++++++++.++++",
"++++++++++++++.++++O$@####@$O+++++++++++++++++++",
"++++++++++++++.+++O@$$@@@@$$@O++++++++++++++++++",
"++++++++++++++++++O#@$$$$$$@#O++++++++++++++++++",
"+++++++++++++++++++OO$$$$$$OO+++++++++++++++++++",
"++++++++++++++++++++O@@OO@@O++++++++++++++++++++",
"+++++++++++++++++++++OO++OO+++++++++++++++++++++",
"+++++++++++++++++++++++++++++.+++.++++++++++++++",
"++++++++++++++++++++++++++++++.+.+++++++++++++++",
"+++++++++++++++++++++++++++++++.++++++++++++++++",
"+++++++++++++++++++++++++++++++.++++++++++++++++",
"++++++++++++++++++++++++++++++++++++++++++++++++",
"++++++++++++++++++++++++++++++++++++++++++++++++",
"++++++++++++++++++++++++++++++++++++++++++++++++",
"++++++++++++++++++++++++++++++++++++++++++++++++",
"++++++++++++++++++++++++++++++++++++++++++++++++",
"+++.+++.++++++++++++++++++++++++++++++++++++++++",
"++++.+.+++++++++++++++++++++++++++++++++++++++++",
"+++++.++++++++++++++++++++++++++++++++++++++++++",
"+++++.++++++++++++++++++++++++++++++++++++++++++",
"++++++++++++++++++++++++++++++++++++++++++++++++",
"++++++++++++++++++++++++++++++++++++++++++++++++",
"++++++++++++++++++++++++++++++++++++++++++++++++"
};
