/* XPM */
static char *bde95945e2ba479cb89de3b0dfb9276av3m78uSZAbKV8cRW[] = {
/* columns rows colors chars-per-pixel */
"48 48 10 1 ",
"  c #412F2F",
". c #2F7515",
"X c #915841",
"o c #A0654D",
"O c #B56E4B",
"+ c #74C857",
"@ c #E09669",
"# c #F6C192",
"$ c #CFCCC5",
"% c #F1E6D6",
/* pixels */
"++++++++++++++++++++++++++++++++++++++++++++++++",
"++++++++++++++++++++++++++++++++++++++++++++++++",
"++++++++++++++++++++++++++++++++++++++++++++++++",
"++++++++++++++++++++++++++++++++++++++++++++++++",
"++++++++++++++++++++++++++++++++++++++++++++++++",
"++++++++++++++++++++++++++++++++++++++++++++++++",
"++++++++++++++++++++++++++++++++++++++++++++++++",
"+++++++++++++++++++++++++++++++++++++.+++.++++++",
"++++++.+++.+++++++++++++++++++++++++++.+.+++++++",
"+++++++.+.+++++++++++++++++++++++++++++.++++++++",
"++++++++.++++++++++++++++++++++++++++++.++++++++",
"++++++++.+++++++++++++++++++++++++++++++++++++++",
"++++++++++++++++++++++++++++++++++++++++++++++++",
"++++++++++++++++++++++++++++++++++++++++++++++++",
"++++++++++++++++++++++++++++++++++++++++++++++++",
"++++++++++++++++++++++++++++++++++++++++++++++++",
"+++++++++++++++++++++XXXXX++++++++++++++++++++++",
"++++++++++++++++++++XOOO@OX+++++++++++++++++++++",
"+++++++++++++++++++XOOOOO@OX++++++++++++++++++++",
"++++++++++++++++++XoO@OOO@OoX+++++++++++++++++++",
"++++++++++++++++++XooO@@@OOoX+++++++++++++++++++",
"++++++++++++++++++XXXXOOOOooX+++++++++++++++++++",
"+++++++++++++++++++@X%XoooooX++++++++++++.+++.++",
"+++++++++++++++++++@ #XoooooX+++++++++++++.+.+++",
"++++++++++++.+++.++@###XoooX+++++++++++++++.++++",
"+++++++++++++.+.++++@@@OXXX++++++++++++++++.++++",
"++++++++++++++.++++++OO$$O++++++++++++++++++++++",
"++++++++++++++.+++++O$$$$$O+++++++++++++++++++++",
"++++++++++++++++++++O@$O$$O+++++++++++++++++++++",
"++++++++++++++++++++O#@O$$O+++++++++++++++++++++",
"+++++++++++++++++++++OO@@O++++++++++++++++++++++",
"++++++++++++++++++++++OOO+++++++++++++++++++++++",
"+++++++++++++++++++++++++++++.+++.++++++++++++++",
"++++++++++++++++++++++++++++++.+.+++++++++++++++",
"+++++++++++++++++++++++++++++++.++++++++++++++++",
"+++++++++++++++++++++++++++++++.++++++++++++++++",
"++++++++++++++++++++++++++++++++++++++++++++++++",
"++++++++++++++++++++++++++++++++++++++++++++++++",
"++++++++++++++++++++++++++++++++++++++++++++++++",
"++++++++++++++++++++++++++++++++++++++++++++++++",
"++++++++++++++++++++++++++++++++++++++++++++++++",
"+++.+++.++++++++++++++++++++++++++++++++++++++++",
"++++.+.+++++++++++++++++++++++++++++++++++++++++",
"+++++.++++++++++++++++++++++++++++++++++++++++++",
"+++++.++++++++++++++++++++++++++++++++++++++++++",
"++++++++++++++++++++++++++++++++++++++++++++++++",
"++++++++++++++++++++++++++++++++++++++++++++++++",
"++++++++++++++++++++++++++++++++++++++++++++++++"
};
