/* XPM */
static char *_28798cf72ce405482ece832d5b58e44UbNws5Re4qEltvTO[] = {
/* columns rows colors chars-per-pixel */
"48 48 8 1 ",
"  c #2F7515",
". c #915841",
"X c #A0654D",
"o c #B56E4B",
"O c #74C857",
"+ c #E09669",
"@ c #F6C192",
"# c #CFCCC5",
/* pixels */
"OOOOOOOOOOOOOOOOOOOOOOOOOOOOOOOOOOOOOOOOOOOOOOOO",
"OOOOOOOOOOOOOOOOOOOOOOOOOOOOOOOOOOOOOOOOOOOOOOOO",
"OOOOOOOOOOOOOOOOOOOOOOOOOOOOOOOOOOOOOOOOOOOOOOOO",
"OOOOOOOOOOOOOOOOOOOOOOOOOOOOOOOOOOOOOOOOOOOOOOOO",
"OOOOOOOOOOOOOOOOOOOOOOOOOOOOOOOOOOOOOOOOOOOOOOOO",
"OOOOOOOOOOOOOOOOOOOOOOOOOOOOOOOOOOOOOOOOOOOOOOOO",
"OOOOOOOOOOOOOOOOOOOOOOOOOOOOOOOOOOOOOOOOOOOOOOOO",
"OOOOOOOOOOOOOOOOOOOOOOOOOOOOOOOOOOOOO OOO OOOOOO",
"OOOOOO OOO OOOOOOOOOOOOOOOOOOOOOOOOOOO O OOOOOOO",
"OOOOOOO O OOOOOOOOOOOOOOOOOOOOOOOOOOOOO OOOOOOOO",
"OOOOOOOO OOOOOOOOOOOOOOOOOOOOOOOOOOOOOO OOOOOOOO",
"OOOOOOOO OOOOOOOOOOOOOOOOOOOOOOOOOOOOOOOOOOOOOOO",
"OOOOOOOOOOOOOOOOOOOOOOOOOOOOOOOOOOOOOOOOOOOOOOOO",
"OOOOOOOOOOOOOOOOOOOOOOOOOOOOOOOOOOOOOOOOOOOOOOOO",
"OOOOOOOOOOOOOOOOOOOOOOOOOOOOOOOOOOOOOOOOOOOOOOOO",
"OOOOOOOOOOOOOOOOOOOOOOOOOOOOOOOOOOOOOOOOOOOOOOOO",
"OOOOOOOOOOOOOOOOOOOOO......OOOOOOOOOOOOOOOOOOOOO",
"OOOOOOOOOOOOOOOOOOOO.X+oo+X.OOOOOOOOOOOOOOOOOOOO",
"OOOOOOOOOOOOOOOOOOO.X+oooo+X.OOOOOOOOOOOOOOOOOOO",
"OOOOOOOOOOOOOOOOOOO.o+oooo+o.OOOOOOOOOOOOOOOOOOO",
"OOOOOOOOOOOOOOOOOO.Xoo+oo+ooX.OOOOOOOOOOOOOOOOOO",
"OOOOOOOOOOOOOOOOOO.XXooooooXX.OOOOOOOOOOOOOOOOOO",
"OOOOOOOOOOOOOOOOOO..XXXooXXX..OOOOOOOOOOO OOO OO",
"OOOOOOOOOOOOOOOOOOO..XXXXXX..OOOOOOOOOOOOO O OOO",
"OOOOOOOOOOOO OOO OO....XX....OOOOOOOOOOOOOO OOOO",
"OOOOOOOOOOOOO O OOOO........OOOOOOOOOOOOOOO OOOO",
"OOOOOOOOOOOOOO OOOOo#......#oOOOOOOOOOOOOOOOOOOO",
"OOOOOOOOOOOOOO OOOo+########+oOOOOOOOOOOOOOOOOOO",
"OOOOOOOOOOOOOOOOOOo@+######+@oOOOOOOOOOOOOOOOOOO",
"OOOOOOOOOOOOOOOOOOOoo######ooOOOOOOOOOOOOOOOOOOO",
"OOOOOOOOOOOOOOOOOOOOo++oo++oOOOOOOOOOOOOOOOOOOOO",
"OOOOOOOOOOOOOOOOOOOOOooOOooOOOOOOOOOOOOOOOOOOOOO",
"OOOOOOOOOOOOOOOOOOOOOOOOOOOOO OOO OOOOOOOOOOOOOO",
"OOOOOOOOOOOOOOOOOOOOOOOOOOOOOO O OOOOOOOOOOOOOOO",
"OOOOOOOOOOOOOOOOOOOOOOOOOOOOOOO OOOOOOOOOOOOOOOO",
"OOOOOOOOOOOOOOOOOOOOOOOOOOOOOOO OOOOOOOOOOOOOOOO",
"OOOOOOOOOOOOOOOOOOOOOOOOOOOOOOOOOOOOOOOOOOOOOOOO",
"OOOOOOOOOOOOOOOOOOOOOOOOOOOOOOOOOOOOOOOOOOOOOOOO",
"OOOOOOOOOOOOOOOOOOOOOOOOOOOOOOOOOOOOOOOOOOOOOOOO",
"OOOOOOOOOOOOOOOOOOOOOOOOOOOOOOOOOOOOOOOOOOOOOOOO",
"OOOOOOOOOOOOOOOOOOOOOOOOOOOOOOOOOOOOOOOOOOOOOOOO",
"OOO OOO OOOOOOOOOOOOOOOOOOOOOOOOOOOOOOOOOOOOOOOO",
"OOOO O OOOOOOOOOOOOOOOOOOOOOOOOOOOOOOOOOOOOOOOOO",
"OOOOO OOOOOOOOOOOOOOOOOOOOOOOOOOOOOOOOOOOOOOOOOO",
"OOOOO OOOOOOOOOOOOOOOOOOOOOOOOOOOOOOOOOOOOOOOOOO",
"OOOOOOOOOOOOOOOOOOOOOOOOOOOOOOOOOOOOOOOOOOOOOOOO",
"OOOOOOOOOOOOOOOOOOOOOOOOOOOOOOOOOOOOOOOOOOOOOOOO",
"OOOOOOOOOOOOOOOOOOOOOOOOOOOOOOOOOOOOOOOOOOOOOOOO"
};
