/* XPM */
static char *_bb92c2366144afbdc3216cae58fe348B9UbEnWN7PPWJq4p[] = {
/* columns rows colors chars-per-pixel */
"48 48 11 1 ",
"  c #2F7515",
". c #417579",
"X c #A0654D",
"o c #B56E4B",
"O c #56B742",
"+ c #498F7B",
"@ c #49A867",
"# c #4FAF7B",
"$ c #74C857",
"% c #D38658",
"& c #BDEF6F",
/* pixels */
"$$$$$$$$$$$$$$$$$$$$$$$OO$$$$$$$$$$$$$$$$$$$$$$$",
"$$$$$$$$$$$$$$$$$$$$$$O$$O$$$$$$$$$$$$$$$$$$$$$$",
"$$$$$$$$$$$$$$$$$$$$@O$&&$O@$$$$$$$$$$$$$$$$$$$$",
"$$$$$$$$$$$$$$$$$$@@O$&&&&$O@@$$$$$$$$$$$$$$$$$$",
"$$$$$$$$$$$$$$$$$@O$$&&&&&&$$O@$$$$$$$$$$$$$$$$$",
"$$$$$$$$$$$$$$$$@O$$$&&&&&&$$$O@$$$$$$$$$$$$$$$$",
"$$$$$$$$$$$$$$$@O$$$$&&&&&&$$$$O@$$$$$$$$$$$$$$$",
"$$$$$$$$$$$$$$@OO$$$$$&&&&$$$$$OO@$$$ $$$ $$$$$$",
"$$$$$$ $$$ $$@OO$$$$$$$&&$$$$$$$OO@$$$ $ $$$$$$$",
"$$$$$$$ $ $++OOOO$$$$$$$$$$$$$$OOOO++$$ $$$$$$$$",
"$$$$$$$$ $++@OOO$$$$$$$$$$$$$$$$OOO@++$ $$$$$$$$",
"$$$$$$$$ ++@OOOO$$$$$$$$$$$$$$$$OOOO@++$$$$$$$$$",
"$$$$$$$$$+@@OOOOOO$$$$$$$$$$$$OOOOOO@@+$$$$$$$$$",
"$$$$$$$$.+@@@OOOO$$$$$$$$$$$$$$OOOO@@@+.$$$$$$$$",
"$$$$$$$$.+@@@OOOO$$$$$$$$$$$$$$OOOO@@@+.$$$$$$$$",
"$$$$$$$.+@@@OOOOOO$$O$$$$$$O$$OOOOOO@@@+.$$$$$$$",
"$$$$$$.++@@@OOOOOOOOO$$$$$$OOOOOOOOO@@@++.$$$$$$",
"$$$$$$.+@@@@OOOOOOOOOO$$$$OOOOOOOOO@@@@@+.$$$$$$",
"$$$$$$.+@@@@@@OOOOOOOOOOOOOOOOOOOO@@@@@@+.$$$$$$",
"$$$$$..+@@@@@@@OOOOOOOOOOOOOOOOOOO@@@@@@+..$$$$$",
"$$$$..+++@@@@@@OOOOOOOOOOOOOOOOOO@@@@@@@++.$$$$$",
"$$$$..++@@@@@@@@OOOOOOOOOOOOOO@OO@@@@@@+++.$$$$$",
"$$$$..++@@@@@@@@@@@OOOOOOOOOOO@@@@@@@@@+++..$ $$",
"$$$$..+++@@@@@@@@@@@OOO@@@OOO@@@@@@@@@++++.. $$$",
"$$$$..+++@@@@@@@@@@@@@@@@@@@@@@@@@@@@@++++..$$$$",
"$$$$..++++@@@@@@@@@@@@@@@@@@@@@@@@@@@@++++..$$$$",
"$$$$..++++++@@@@@@@@@@@@@@@@@@@@@@@@+++++...$$$$",
"$$$$...+++++@@@@@@@@@@@@@@@@@@@@@@@@+++++...$$$$",
"$$$$$..++++++@@+@@@@@@@@@@@+@@@+@@@++++++..$$$$$",
"$$$$$..++++++++++@@@+@@@@@@+@@++++++++++...$$$$$",
"$$$$$$..++++++++++++++@@@@++++++++++++++..$$$$$$",
"$$$$$$....+++++++++++++++++++++++++++++...$$$$$$",
"$$$$$$$...+++++++++++++++++++++++++.++...$$$$$$$",
"$$$$$$$$...+++.++++++++++++++++++++.....$$$$$$$$",
"$$$$$$$$$......+++++++++++++++.+++.....$$$$$$$$$",
"$$$$$$$$$$......+++..+++++++..........$$$$$$$$$$",
"$$$$$$$$$$##..........++++..........##$$$$$$$$$$",
"$$$$$$$$$$####....................####$$$$$$$$$$",
"$$$$$$$$$$####Xoo..............ooX####$$$$$$$$$$",
"$$$$$$$$$$####X%%ooo........ooo%%X####$$$$$$$$$$",
"$$$$$$$$$$$####X%%oooooooooooo%%X####$$$$$$$$$$$",
"$$$ $$$ $$$#####XXXXooo%%oooXXXX#####$$$$$$$$$$$",
"$$$$ $ $$$$$########Xo%%%%oX########$$$$$$$$$$$$",
"$$$$$ $$$$$$$########X%%%%X########$$$$$$$$$$$$$",
"$$$$$ $$$$$$$$########XXXX#######$$$$$$$$$$$$$$$",
"$$$$$$$$$$$$$$$$$##############$$$$$$$$$$$$$$$$$",
"$$$$$$$$$$$$$$$$$$$##########$$$$$$$$$$$$$$$$$$$",
"$$$$$$$$$$$$$$$$$$$$########$$$$$$$$$$$$$$$$$$$$"
};
